<svg xmlns="http://www.w3.org/2000/svg" width="24.957" height="24.957" viewBox="0 0 24.957 24.957"><defs><style>.a{fill:none;}.b{fill:#fff;}</style></defs><rect class="a" width="24.957" height="24.957"/><g transform="translate(2.012 4.524)"><path class="b" d="M20.573,16.457H.32a.32.32,0,0,1,0-.64H20.573a.32.32,0,1,1,0,.64Z" transform="translate(0 -7.793)"/><path class="b" d="M8.346,19.973a.322.322,0,0,1-.227-.093L.093,11.853a.321.321,0,0,1,0-.453L8.12,3.376a.32.32,0,0,1,.453.453l-7.8,7.8,7.8,7.8a.32.32,0,0,1-.227.547Z" transform="translate(0 -3.283)"/></g></svg>