<svg xmlns="http://www.w3.org/2000/svg" xmlns:xlink="http://www.w3.org/1999/xlink" width="24.957" height="24.957" viewBox="0 0 24.957 24.957"><defs><style>.a{fill:url(#a);}.b{fill:#fdb62f;}.c{fill:#ecf0f1;}.d{fill:#33495f;opacity:0.5;}.e{fill:#fff;}.f{fill:#474747;}</style><linearGradient id="a" x1="0.5" x2="0.5" y2="1" gradientUnits="objectBoundingBox"><stop offset="0" stop-color="#c51d23"/><stop offset="1" stop-color="#c51d23"/></linearGradient></defs><circle class="a" cx="12.479" cy="12.479" r="12.479"/><g transform="translate(4.16 5.199)"><g transform="translate(0 0)"><circle class="b" cx="7.103" cy="7.103" r="7.103" transform="translate(1.844 0.169)"/><circle class="c" cx="5.86" cy="5.86" r="5.86" transform="translate(3.087 1.412)"/><circle class="b" cx="4.617" cy="4.617" r="4.617" transform="translate(4.33 2.656)"/><circle class="c" cx="3.374" cy="3.374" r="3.374" transform="translate(5.573 3.899)"/><circle class="b" cx="2.131" cy="2.131" r="2.131" transform="translate(6.816 5.142)"/><circle class="c" cx="0.888" cy="0.888" r="0.888" transform="translate(8.059 6.385)"/><path class="d" d="M128.033,239.416a.157.157,0,0,0-.1.032l-5.644,4.287q.092.128.19.252l5.645-4.288a.158.158,0,0,0-.1-.284Z" transform="translate(-119.112 -232.313)"/><path class="e" d="M53.282,123.912l-3.111-2.363-1.9.541,1.286.977.678-.2-.42.4.811.616.519-.126-.29.3.527.4Z" transform="translate(-48.273 -119.513)"/><g transform="translate(1.787 1.815)"><path class="f" d="M96.986,122.031a.157.157,0,0,1-.1-.032l-6.976-5.3a.158.158,0,1,1,.191-.251l6.976,5.3a.158.158,0,0,1-.1.284Z" transform="translate(-89.852 -116.416)"/></g><path class="e" d="M96.647,76.553l-.6-.454-.242.808.012-.982-1.075-.817L94.361,76l.165-1.057-.99-.752-.012,1.973,3.111,2.363Z" transform="translate(-91.579 -74.19)"/></g></g></svg>