<svg xmlns="http://www.w3.org/2000/svg" width="14" height="14" viewBox="0 0 14 14"><defs><style>.a{fill:#152238;stroke:#333;stroke-width:0.2px;}.b{fill:none;}</style></defs><g transform="translate(3.125 2.083)"><g transform="translate(0 1.583)"><path class="a" d="M9.21,13.981H3.727a.739.739,0,0,1-.738-.738V6.1a.739.739,0,0,1,.738-.738h.7a.148.148,0,0,1,0,.3h-.7a.443.443,0,0,0-.443.443v7.14a.443.443,0,0,0,.443.443H9.21a.443.443,0,0,0,.443-.443v-.7a.148.148,0,0,1,.3,0v.7A.739.739,0,0,1,9.21,13.981Z" transform="translate(-2.989 -5.364)"/></g><g transform="translate(1.476 0)"><g transform="translate(0)"><path class="a" d="M14.21,8.616H8.727a.739.739,0,0,1-.738-.738V.738A.739.739,0,0,1,8.727,0h4.016a.148.148,0,0,1,0,.3H8.727a.443.443,0,0,0-.443.443v7.14a.443.443,0,0,0,.443.443H14.21a.443.443,0,0,0,.443-.443V2.261a.148.148,0,0,1,.3,0V7.878A.739.739,0,0,1,14.21,8.616Z" transform="translate(-7.989)"/><path class="a" d="M25.8,2.541H23.741a.148.148,0,0,1-.148-.148V.336a.148.148,0,1,1,.3,0V2.246H25.8a.148.148,0,0,1,0,.3Z" transform="translate(-18.987 -0.133)"/><path class="a" d="M25.8,2.41a.148.148,0,0,1-.106-.045L23.635.252a.148.148,0,1,1,.212-.206L25.905,2.16a.147.147,0,0,1-.106.25Z" transform="translate(-18.987 -0.001)"/></g></g></g><rect class="b" width="14" height="14" transform="translate(0 0)"/></svg>