<svg xmlns="http://www.w3.org/2000/svg" width="24.957" height="24.957" viewBox="0 0 24.957 24.957"><defs><style>.a{fill:none;}.b{fill:#152238;}</style></defs><rect class="a" width="24.957" height="24.957"/><path class="b" d="M17.98,9.027a1.318,1.318,0,0,0-.731-2.248L12.8,6.132a.581.581,0,0,1-.438-.318l-1.99-4.032a1.318,1.318,0,0,0-2.364,0L6.018,5.814a.582.582,0,0,1-.438.318l-4.45.647A1.318,1.318,0,0,0,.4,9.027l3.22,3.139a.583.583,0,0,1,.168.515l-.76,4.432A1.318,1.318,0,0,0,4.939,18.5l3.98-2.093a.583.583,0,0,1,.542,0l3.98,2.093a1.318,1.318,0,0,0,1.912-1.389l-.76-4.432a.582.582,0,0,1,.168-.515Zm-4.113,3.779.76,4.432a.582.582,0,0,1-.844.614L9.8,15.759a1.318,1.318,0,0,0-1.227,0L4.6,17.851a.582.582,0,0,1-.845-.614l.76-4.432a1.318,1.318,0,0,0-.379-1.167L.913,8.5a.582.582,0,0,1,.322-.993l4.45-.647a1.316,1.316,0,0,0,.993-.721l1.99-4.032a.582.582,0,0,1,1.044,0L11.7,6.14a1.316,1.316,0,0,0,.992.721l4.45.647a.582.582,0,0,1,.322.993l-3.22,3.139A1.318,1.318,0,0,0,13.868,12.806Z" transform="translate(3.119 3.113)"/></svg>