<svg xmlns="http://www.w3.org/2000/svg" width="22" height="22" viewBox="0 0 22 22"><defs><style>.a{fill:#152238;}.b{fill:none;}</style></defs><g transform="translate(5.5 3.929)"><g transform="translate(0)"><path class="a" d="M56.609,85.4h-6.8a1.157,1.157,0,0,0-1.157,1.157v9.76a1.157,1.157,0,0,0,1.157,1.157h6.8a1.157,1.157,0,0,0,1.157-1.157v-9.76A1.161,1.161,0,0,0,56.609,85.4Zm.345,10.914a.348.348,0,0,1-.348.348H49.8a.348.348,0,0,1-.348-.348V86.557a.348.348,0,0,1,.348-.348h6.8a.348.348,0,0,1,.348.348Z" transform="translate(-48.65 -82.841)"/><path class="a" d="M143.409,0h-6.8a1.157,1.157,0,0,0-1.157,1.157.4.4,0,0,0,.809,0,.348.348,0,0,1,.348-.348h6.8a.348.348,0,0,1,.348.348v9.76a.348.348,0,0,1-.348.348.4.4,0,0,0,0,.809,1.157,1.157,0,0,0,1.157-1.157V1.157A1.157,1.157,0,0,0,143.409,0Z" transform="translate(-132.849)"/></g></g><rect class="b" width="22" height="22"/></svg>