<svg xmlns="http://www.w3.org/2000/svg" width="27.97" height="27.97" viewBox="0 0 27.97 27.97"><defs><style>.a{fill:#152238;}.b{fill:none;}</style></defs><g transform="translate(4.994 4.995)"><g transform="translate(0 2.949)"><g transform="translate(0)"><path class="a" d="M15.394,92.973l-.683-2.048a2.064,2.064,0,0,0-1.589-1.378l-1.97-.359v-.153a2.967,2.967,0,0,0,.879-.78h.6a.886.886,0,0,0,.885-.885V83.833a3.833,3.833,0,1,0-7.666,0V85.9a1.181,1.181,0,0,0,.94,1.155A2.954,2.954,0,0,0,8.2,89.036v.153l-1.971.359a2.064,2.064,0,0,0-1.589,1.378l-.118.354-1-1a.3.3,0,0,1,0-.417l1.165-1.164L2.5,86.508,1.184,87.824a2.064,2.064,0,0,0,0,2.919l3.985,3.985a2.063,2.063,0,0,0,2.91.009L9.515,93.42l-.448-.447Zm-2.473-5.6a.3.3,0,0,1-.295.295h-.248a2.929,2.929,0,0,0,.192-.614,1.168,1.168,0,0,0,.351-.139Zm-.295-.967V85.389a.585.585,0,0,1,0,1.015Zm-5.9,0a.585.585,0,0,1,0-1.015Zm0-1.982v.337a1.17,1.17,0,0,0-.295.122V83.833a3.243,3.243,0,1,1,6.487,0v1.048a1.159,1.159,0,0,0-.295-.122v-.337h-.295a3.244,3.244,0,0,1-2.308-.956l-.345-.345-.345.345a3.244,3.244,0,0,1-2.308.956Zm.59,2.064V85a3.823,3.823,0,0,0,2.359-1.048A3.821,3.821,0,0,0,12.037,85v1.485a2.341,2.341,0,0,1-.319,1.179H9.678v.59h1.555a2.355,2.355,0,0,1-3.914-1.769ZM10.562,89.3v.014l-.885.885-.885-.885V89.3a2.946,2.946,0,0,0,1.769,0ZM5.2,91.112a1.475,1.475,0,0,1,1.135-.985L8.4,89.753l1.279,1.279,1.278-1.278,2.061.374a1.474,1.474,0,0,1,1.135.985l.424,1.272h-6.1L7.329,91.235,6.053,92.39a.3.3,0,0,1-.417,0l-.644-.644Zm-2.7-3.77,1.352,1.352-.32.32L2.18,87.662Zm5.17,6.97a1.475,1.475,0,0,1-2.085,0L1.6,90.326a1.475,1.475,0,0,1,0-2.085l.162-.162,1.352,1.352-.011.011a.886.886,0,0,0,0,1.251l2.114,2.114a.88.88,0,0,0,.626.259.868.868,0,0,0,.615-.249l.022-.02L7.84,94.156Zm.6-.554L6.92,92.4l.389-.352L8.662,93.4Z" transform="translate(-0.58 -80)"/></g></g><g transform="translate(12.342)"><path class="a" d="M340.44,0h-4.128a.886.886,0,0,0-.885.885V3.243a.886.886,0,0,0,.885.885h.788l-.3,1.778,2.845-1.778h.8a.886.886,0,0,0,.885-.885V.885A.886.886,0,0,0,340.44,0Zm.295,3.243a.3.3,0,0,1-.295.295h-.969L337.6,4.708l.2-1.17h-1.487a.3.3,0,0,1-.295-.295V.885a.3.3,0,0,1,.295-.295h4.128a.3.3,0,0,1,.295.295Z" transform="translate(-335.428 0)"/></g><g transform="translate(13.521 1.179)"><rect class="a" width="3.538" height="0.59"/></g><g transform="translate(13.521 2.359)"><rect class="a" width="2.359" height="0.59"/></g><g transform="translate(16.469 2.359)"><rect class="a" width="0.59" height="0.59"/></g><g transform="translate(0 0.885)"><g transform="translate(0)"><path class="a" d="M9.67,24a8.251,8.251,0,0,0-8.034,6.382l-.559-.931-.506.3,1.036,1.727,1.727-1.036-.3-.506-.8.479a7.668,7.668,0,0,1,9.709-5.487l.175-.563A8.25,8.25,0,0,0,9.67,24Z" transform="translate(-0.572 -24)"/></g></g><g transform="translate(15.055 5.492)"><path class="a" d="M412.077,150.052l-1.727-1.036-1.036,1.727.506.3.516-.86a7.673,7.673,0,0,1-1.3,7.3l.458.371a8.257,8.257,0,0,0,1.413-7.824l.867.52Z" transform="translate(-409.036 -149.016)"/></g></g><rect class="b" width="27.97" height="27.97" transform="translate(0 0)"/></svg>