<svg xmlns="http://www.w3.org/2000/svg" width="25" height="25" viewBox="0 0 25 25"><defs><style>.a{fill:none;}.b{fill:#fe6500;}</style></defs><rect class="a" width="25" height="25" transform="translate(0)"/><g transform="translate(2.769 2.769)"><path class="b" d="M19.227,233.151a.4.4,0,0,0-.4.4v.76H.8v-2.662H19.227a.4.4,0,1,0,0-.8H.4a.4.4,0,0,0-.4.4v3.461a.4.4,0,0,0,.4.4H19.227a.4.4,0,0,0,.4-.4v-1.16A.4.4,0,0,0,19.227,233.151Z" transform="translate(0 -215.483)"/><path class="b" d="M70.255,122.62a.4.4,0,0,0,.565,0l5.083-5.084a.4.4,0,0,0-.565-.565l-4.8,4.8-4.8-4.8a.4.4,0,0,0-.565.565Z" transform="translate(-60.724 -109.076)"/><path class="b" d="M141.821,11.411a.4.4,0,0,0,.4-.4V.4a.4.4,0,1,0-.8,0V11.012A.4.4,0,0,0,141.821,11.411Z" transform="translate(-132.008)"/></g></svg>