<svg xmlns="http://www.w3.org/2000/svg" width="14" height="13.999" viewBox="0 0 14 13.999"><defs><style>.a{fill:none;}.b{fill:#152238;}</style></defs><rect class="a" width="13.999" height="13.999" transform="translate(0)"/><g transform="translate(2.083 2.083)"><g transform="translate(0 0)"><path class="b" d="M15.456,114.3h-9.4a.364.364,0,0,0-.352.372.37.37,0,0,0,.352.372h9.413a.364.364,0,0,0,.352-.372A.371.371,0,0,0,15.456,114.3Z" transform="translate(-5.691 -105.116)"/><path class="b" d="M5.609,13.344,5.6,15.111a.384.384,0,0,0,.109.272.363.363,0,0,0,.263.109l1.758-.009a.363.363,0,0,0,.263-.109L14.065,9.3a.383.383,0,0,0,0-.535l-1.74-1.758a.383.383,0,0,0-.535,0L10.576,8.232,5.718,13.081A.4.4,0,0,0,5.609,13.344Zm6.453-5.537L13.285,9.03l-.689.689L11.373,8.5Zm-5.7,5.7L10.838,9.03l1.223,1.223L7.585,14.721l-1.233.009Z" transform="translate(-5.6 -6.9)"/></g></g><rect class="a" width="13.999" height="13.999"/></svg>