<svg xmlns="http://www.w3.org/2000/svg" width="28.383" height="28.383" viewBox="0 0 28.383 28.383"><defs><style>.a{fill:#152238;}.b{fill:none;}</style></defs><g transform="translate(2.802 2.802)"><g transform="translate(0 8.308)"><path class="a" d="M15.437,180.469a.446.446,0,0,0-.446.446v3.078a2.233,2.233,0,0,1-2.231,2.231H7.943a.446.446,0,0,0-.446.446v.887l-1.065-1.065a.446.446,0,0,0-.409-.268h-2.9a2.233,2.233,0,0,1-2.231-2.231v-6.871a2.233,2.233,0,0,1,2.231-2.231H7.629a.446.446,0,0,0,0-.892H3.123A3.127,3.127,0,0,0,0,177.123v6.871a3.127,3.127,0,0,0,3.123,3.123H5.794l1.832,1.832a.446.446,0,0,0,.762-.315v-1.517H12.76a3.127,3.127,0,0,0,3.123-3.123v-3.078A.446.446,0,0,0,15.437,180.469Z" transform="translate(0 -174)"/></g><g transform="translate(9.289)"><path class="a" d="M203.614,0h-1.129a6.485,6.485,0,1,0,0,12.969h1.129a6.5,6.5,0,0,0,1.646-.211l1.668,1.667a.446.446,0,0,0,.762-.316V11.529a6.547,6.547,0,0,0,1.7-2.1,6.415,6.415,0,0,0,.7-2.942A6.492,6.492,0,0,0,203.614,0Zm3.361,10.955a.446.446,0,0,0-.178.356v1.722l-1.092-1.091a.446.446,0,0,0-.446-.111,5.594,5.594,0,0,1-1.645.246h-1.129a5.592,5.592,0,1,1,0-11.185h1.129a5.592,5.592,0,0,1,3.361,10.062Z" transform="translate(-196)"/></g><g transform="translate(14.43 3.126)"><path class="a" d="M318.235,71.819a1.889,1.889,0,0,0-3.773.133.446.446,0,1,0,.892,0,1,1,0,0,1,1.068-.994,1,1,0,0,1,.147,1.967.844.844,0,0,0-.665.828v1.072a.446.446,0,1,0,.892,0V73.788A1.879,1.879,0,0,0,318.235,71.819Z" transform="translate(-314.462 -70.063)"/></g><g transform="translate(15.856 9.434)"><path class="a" d="M347.562,206.461a.447.447,0,1,0,.131.315A.45.45,0,0,0,347.562,206.461Z" transform="translate(-346.8 -206.33)"/></g><g transform="translate(2.409 14.174)"><path class="a" d="M63.86,310H54.446a.446.446,0,1,0,0,.892H63.86a.446.446,0,1,0,0-.892Z" transform="translate(-54 -310)"/></g><g transform="translate(12.116 16.734)"><path class="a" d="M265.762,366.131a.446.446,0,1,0,.131.315A.449.449,0,0,0,265.762,366.131Z" transform="translate(-265 -366)"/></g><g transform="translate(2.409 16.734)"><path class="a" d="M62.105,366H54.446a.446.446,0,1,0,0,.892h7.659a.446.446,0,1,0,0-.892Z" transform="translate(-54 -366)"/></g><g transform="translate(2.409 11.613)"><path class="a" d="M60.96,254H54.446a.446.446,0,0,0,0,.892H60.96a.446.446,0,0,0,0-.892Z" transform="translate(-54 -254)"/></g></g><rect class="b" width="28.383" height="28.383"/></svg>