<svg xmlns="http://www.w3.org/2000/svg" width="26" height="26" viewBox="0 0 26 26"><defs><style>.a,.b{fill:#fe2433;}.a{opacity:0.7;}.c{fill:none;}</style></defs><g transform="translate(4.071 2.756)"><rect class="a" width="5.909" height="5.909" transform="translate(6.565 11.425)"/><path class="b" d="M92,100.616V92.164a3.106,3.106,0,0,1,1.167-2.427l5.051-4.663a4.974,4.974,0,0,1,6.214,0l5.051,4.663a3.106,3.106,0,0,1,1.167,2.427v8.452a3.108,3.108,0,0,1-3.108,3.108H95.108A3.108,3.108,0,0,1,92,100.616Zm11.81-1.474V97.117a1.474,1.474,0,0,0-1.474-1.474h-2.025a1.474,1.474,0,0,0-1.474,1.474v2.025a1.474,1.474,0,0,0,1.474,1.474h2.025A1.474,1.474,0,0,0,103.81,99.142Z" transform="translate(-92 -83.985)"/></g><rect class="c" width="26" height="26"/></svg>