<svg xmlns="http://www.w3.org/2000/svg" width="27.97" height="27.97" viewBox="0 0 27.97 27.97"><defs><style>.a,.b{fill:#152238;}.b{font-size:7px;font-family:Roboto-Bold, Roboto;font-weight:700;}.c{fill:none;}</style></defs><g transform="translate(4.995 1.998)"><path class="a" d="M101.468,41.058h-1.114v-.542a.292.292,0,0,0-.307-.294H98.16V37.4A2.383,2.383,0,0,0,95.784,35H87.428A2.427,2.427,0,0,0,85,37.4V55.68a2.427,2.427,0,0,0,2.428,2.4h8.356a2.383,2.383,0,0,0,2.376-2.4V52.129h3.308a1.329,1.329,0,0,0,1.34-1.347V42.4a1.325,1.325,0,0,0-1.34-1.342Zm-1.741-.209v.992H96.959v-.992ZM95.784,57.456H87.428a1.8,1.8,0,0,1-1.8-1.776V54.323H97.534V55.68A1.755,1.755,0,0,1,95.784,57.456Zm1.749-3.76H85.627V38.76h8.538a.313.313,0,0,0,0-.627H85.627V37.4a1.8,1.8,0,0,1,1.8-1.776h8.356A1.755,1.755,0,0,1,97.534,37.4v.731h-.705a.313.313,0,0,0,0,.627h.705v1.462H96.64a.292.292,0,0,0-.307.294v.542H95.218A1.37,1.37,0,0,0,93.826,42.4v8.382a1.374,1.374,0,0,0,1.392,1.347h2.315Zm4.648-2.914a.7.7,0,0,1-.713.72h-6.25a.747.747,0,0,1-.766-.72V42.4a.743.743,0,0,1,.766-.715h1.114v.448a.327.327,0,0,0,.307.335h3.407a.327.327,0,0,0,.307-.335v-.448h1.114a.7.7,0,0,1,.713.715Z" transform="translate(-85 -35)"/><path class="a" d="M274.507,95.627h.581a.313.313,0,1,0,0-.627h-.581a.313.313,0,1,0,0,.627Z" transform="translate(-264.314 -91.867)"/><path class="a" d="M191.6,414a1.1,1.1,0,1,0,1.1,1.1A1.1,1.1,0,0,0,191.6,414Zm0,1.567a.47.47,0,1,1,.47-.47A.47.47,0,0,1,191.6,415.567Z" transform="translate(-184.99 -394.207)"/><path class="a" d="M200.635,237h-1.112a.313.313,0,1,0,0,.627h1.112a.313.313,0,0,0,0-.627Z" transform="translate(-193.246 -226.451)"/><path class="a" d="M116.813,237.627h2.934a.313.313,0,0,0,0-.627h-2.934a.313.313,0,1,0,0,.627Z" transform="translate(-114.855 -226.451)"/><path class="a" d="M162.724,287h-3.2a.313.313,0,1,0,0,.627h3.2a.313.313,0,0,0,0-.627Z" transform="translate(-155.335 -273.84)"/><path class="a" d="M116.813,287.627h.845a.313.313,0,0,0,0-.627h-.845a.313.313,0,0,0,0,.627Z" transform="translate(-114.855 -273.84)"/><path class="a" d="M200.753,337h-.94a.313.313,0,1,0,0,.627h.94a.313.313,0,0,0,0-.627Z" transform="translate(-193.52 -321.229)"/><path class="a" d="M119.747,337h-2.934a.313.313,0,0,0,0,.627h2.934a.313.313,0,0,0,0-.627Z" transform="translate(-114.855 -321.229)"/><path class="a" d="M163,183h-3.186a.313.313,0,1,0,0,.627H163a.313.313,0,1,0,0-.627Z" transform="translate(-155.609 -175.271)"/><path class="a" d="M116.813,183.627h.845a.313.313,0,0,0,0-.627h-.845a.313.313,0,1,0,0,.627Z" transform="translate(-114.855 -175.271)"/><text class="b" transform="translate(11.026 12.904)"><tspan x="0" y="0">?</tspan></text></g><rect class="c" width="27.97" height="27.97" transform="translate(0 0)"/></svg>