<svg xmlns="http://www.w3.org/2000/svg" xmlns:xlink="http://www.w3.org/1999/xlink" width="25" height="25" viewBox="0 0 25 25"><defs><style>.a{fill:url(#a);}.b{fill:#fff;}</style><radialGradient id="a" cx="0.048" cy="0.979" r="1.798" gradientUnits="objectBoundingBox"><stop offset="0" stop-color="#f9ed32"/><stop offset="0.061" stop-color="#f7d939"/><stop offset="0.187" stop-color="#f4a54c"/><stop offset="0.365" stop-color="#f0536b"/><stop offset="0.449" stop-color="#ee2a7b"/><stop offset="0.599" stop-color="#9e2aa7"/><stop offset="0.742" stop-color="#5a2acc"/><stop offset="0.86" stop-color="#292ae7"/><stop offset="0.95" stop-color="#0b2af8"/><stop offset="1" stop-color="#002aff"/></radialGradient></defs><circle class="a" cx="12.5" cy="12.5" r="12.5" transform="translate(0 0)"/><g transform="translate(4.778 5.173)"><g transform="translate(0)"><path class="b" d="M-1725.078-455.544h-5.883a4.743,4.743,0,0,1-4.735-4.735v-5.184a4.743,4.743,0,0,1,4.735-4.735h5.883a4.743,4.743,0,0,1,4.735,4.735v5.184a4.743,4.743,0,0,1-4.735,4.735Zm-5.883-13.6a3.687,3.687,0,0,0-3.683,3.682v5.184a3.687,3.687,0,0,0,3.683,3.683h5.883a3.687,3.687,0,0,0,3.683-3.683v-5.184a3.686,3.686,0,0,0-3.683-3.682Z" transform="translate(1735.696 470.198)"/></g><g transform="translate(3.46 3.112)"><path class="b" d="M-1715.737-447.611a4.22,4.22,0,0,1-4.215-4.215,4.219,4.219,0,0,1,4.215-4.215,4.22,4.22,0,0,1,4.215,4.215,4.22,4.22,0,0,1-4.215,4.215Zm0-7.377a3.162,3.162,0,0,0-3.162,3.162,3.162,3.162,0,0,0,3.162,3.162,3.162,3.162,0,0,0,3.162-3.162A3.162,3.162,0,0,0-1715.737-454.988Z" transform="translate(1719.952 456.041)"/></g><g transform="translate(10.948 2.367)"><path class="b" d="M-1684.132-458.555a.874.874,0,0,1-.874.874.874.874,0,0,1-.619-.256.874.874,0,0,1-.256-.618.874.874,0,0,1,.256-.619.874.874,0,0,1,.619-.256.874.874,0,0,1,.874.875Z" transform="translate(1685.881 459.43)"/></g></g></svg>