<svg xmlns="http://www.w3.org/2000/svg" width="25" height="25" viewBox="0 0 25 25"><defs><style>.a,.c,.d{fill:none;}.a,.c{stroke:#152238;stroke-width:0.9px;}.a{stroke-miterlimit:10;}.b{fill:#152238;}.c{stroke-linecap:round;stroke-linejoin:round;}</style></defs><g transform="translate(12.965 7.497)"><circle class="a" cx="2.822" cy="2.822" r="2.822" transform="translate(1.581)"/><path class="a" d="M982.147-343.144a4.594,4.594,0,0,1,4.4-3.333h0a4.589,4.589,0,0,1,4.575,4.575v.428" transform="translate(-982.147 352.207)"/></g><circle class="a" cx="2.663" cy="2.663" r="2.663" transform="translate(1.915 12.553)"/><g transform="translate(3.643 13.861)"><path class="b" d="M973.1-344.87c-.045.453-.4.741-.972.759.346.36.723.812,1.1,1.27H972.8c-.346-.417-.671-.8-1.088-1.247v-.275h.245c.479,0,.737-.2.768-.506h-1.013v-.222h1c-.062-.257-.3-.386-.684-.386h-.315v-.289h1.865v.222h-.729a.665.665,0,0,1,.249.453h.484v.222Z" transform="translate(-971.707 345.767)"/></g><g transform="translate(4.836 4.952)"><circle class="a" cx="2.822" cy="2.822" r="2.822" transform="translate(1.072)"/><path class="a" d="M973.043-347.147a4.582,4.582,0,0,1,3.894-2.18h0a4.589,4.589,0,0,1,4.576,4.575v.428" transform="translate(-973.043 355.057)"/></g><path class="c" d="M984.015-341.473a4.312,4.312,0,0,1-5.772-1.6" transform="translate(-968.764 359.34)"/><path class="c" d="M979.527-343.355h-1.518l-.223,1.545" transform="translate(-968.715 359.37)"/><rect class="d" width="25" height="25" transform="translate(0 0)"/></svg>