<svg xmlns="http://www.w3.org/2000/svg" width="27.97" height="27.97" viewBox="0 0 27.97 27.97"><defs><style>.a{fill:none;}.b{fill:#152238;}</style></defs><rect class="a" width="27.97" height="27.97" transform="translate(0 0)"/><g transform="translate(4.163 4.162)"><path class="b" d="M15.021,10.366a1.161,1.161,0,0,0,.665,1.655.753.753,0,0,1,.484.484,1.17,1.17,0,0,0,.316.495,1.15,1.15,0,0,0,.787.3,1.2,1.2,0,0,0,.847-.349l3.3-3.3a1.187,1.187,0,0,0,.044-1.634,1.17,1.17,0,0,0-.495-.316.753.753,0,0,1-.484-.484,1.161,1.161,0,0,0-1.655-.666L15.221,2.939a1.161,1.161,0,0,0-.665-1.655A.753.753,0,0,1,14.072.8a1.17,1.17,0,0,0-.316-.495,1.187,1.187,0,0,0-1.634.044l-3.3,3.3a1.187,1.187,0,0,0-.044,1.634A1.17,1.17,0,0,0,9.27,5.6a.753.753,0,0,1,.484.484,1.17,1.17,0,0,0,.316.495,1.15,1.15,0,0,0,.787.3,1.207,1.207,0,0,0,.553-.134l1.016,1.016L2.995,17.2a1.243,1.243,0,0,0,1.758,1.758l9.43-9.431Zm6.017-1.948h0a.6.6,0,0,1-.03.818l-3.3,3.3a.6.6,0,0,1-.818.03.573.573,0,0,1-.157-.246,1.331,1.331,0,0,0-.143-.3l3.9-3.9a1.332,1.332,0,0,0,.3.143A.573.573,0,0,1,21.038,8.418ZM19.773,7.153a.573.573,0,0,1,.157.246,1.332,1.332,0,0,0,.143.3l-3.9,3.9a1.333,1.333,0,0,0-.3-.143.573.573,0,0,1-.246-.157.6.6,0,0,1,.029-.818L17.3,8.834l1.652-1.652A.611.611,0,0,1,19.386,7,.565.565,0,0,1,19.773,7.153ZM9.2,4.887a.6.6,0,0,1,.03-.818l3.3-3.3a.611.611,0,0,1,.431-.179.565.565,0,0,1,.387.149.573.573,0,0,1,.157.246,1.332,1.332,0,0,0,.143.3l-3.9,3.9a1.332,1.332,0,0,0-.3-.143A.573.573,0,0,1,9.2,4.887Zm1.265,1.265a.572.572,0,0,1-.157-.246,1.332,1.332,0,0,0-.143-.3l3.9-3.9a1.333,1.333,0,0,0,.3.143A.573.573,0,0,1,14.621,2h0a.6.6,0,0,1-.03.818l-3.3,3.3A.6.6,0,0,1,10.469,6.152Zm4.377-2.757,3.533,3.533L16.888,8.419,15.4,9.91,11.864,6.377ZM4.337,18.542a.655.655,0,1,1-.927-.927l9.43-9.431.927.927Z" transform="translate(-2.632 0)"/><path class="b" d="M213.743,363.726a.281.281,0,0,0-.057-.171l-1.146-1.5v-.684a.282.282,0,0,0-.282-.282h-7.885a.282.282,0,0,0-.282.282v.684l-1.146,1.5a.281.281,0,0,0-.057.171v1.2a.282.282,0,0,0,.282.282h10.293a.282.282,0,0,0,.282-.282Zm-9.088-2.071h7.322v.217h-7.322Zm-.143.78h7.607l.773,1.01H203.74Zm-1.061,2.21v-.637h9.729v.637Z" transform="translate(-193.42 -344.647)"/><path class="b" d="M270.033,94.85a.282.282,0,0,0,.4-.4l-2.316-2.316a.282.282,0,1,0-.4.4Z" transform="translate(-255.607 -87.875)"/></g></svg>