<svg xmlns="http://www.w3.org/2000/svg" width="25" height="25" viewBox="0 0 25 25"><defs><style>.a{fill:#007ab9;}.b{fill:#f1f2f2;}</style></defs><circle class="a" cx="12.5" cy="12.5" r="12.5" transform="translate(0 0)"/><g transform="translate(6.031 5.341)"><path class="b" d="M41.005,32.134v5.153H38.017V32.479c0-1.207-.431-2.032-1.513-2.032a1.634,1.634,0,0,0-1.533,1.093,2.045,2.045,0,0,0-.1.728v5.019H31.885s.04-8.143,0-8.986h2.988v1.273c-.006.01-.014.02-.02.029h.02v-.029a2.967,2.967,0,0,1,2.693-1.484c1.966,0,3.44,1.284,3.44,4.044ZM28.759,23.969a1.557,1.557,0,1,0-.039,3.106h.019a1.558,1.558,0,1,0,.02-3.106ZM27.246,37.287h2.987V28.3H27.246Z" transform="translate(-27.068 -23.969)"/></g></svg>