<svg xmlns="http://www.w3.org/2000/svg" width="25" height="25" viewBox="0 0 25 25"><defs><style>.a{fill:none;}.b{fill:#28303b;}</style></defs><rect class="a" width="25" height="25"/><g transform="translate(2.06 6.682)"><path class="b" d="M17.649,15.726a10.55,10.55,0,0,0-14.9,0L0,18.471l2.813,2.813a10.551,10.551,0,0,0,14.9,0l2.745-2.745Zm-.421,5.068a9.859,9.859,0,0,1-13.927,0L.977,18.471l2.256-2.256a9.859,9.859,0,0,1,13.927,0l2.324,2.324Z" transform="translate(0 -12.644)"/><path class="b" d="M23.991,21.57a2.422,2.422,0,0,0-2.419,2.419.346.346,0,1,0,.691,0,1.73,1.73,0,0,1,1.728-1.728.346.346,0,1,0,0-.691Z" transform="translate(-14.116 -18.485)"/><path class="b" d="M21.065,16.57a4.493,4.493,0,1,0,4.493,4.493A4.5,4.5,0,0,0,21.065,16.57Zm0,8.3a3.8,3.8,0,1,1,3.8-3.8A3.806,3.806,0,0,1,21.065,24.865Z" transform="translate(-10.844 -15.213)"/></g></svg>