<svg xmlns="http://www.w3.org/2000/svg" width="25" height="25" viewBox="0 0 25 25"><defs><style>.a{fill:#152238;}.b{fill:none;}</style></defs><g transform="translate(3.571 3.571)"><g transform="translate(0)"><path class="a" d="M12.161,6.514V.434A.434.434,0,0,0,11.727,0H.435A.434.434,0,0,0,0,.434v16.5a.434.434,0,0,0,.434.434H11.727a.434.434,0,0,0,.434-.434v-6.08h-.869V16.5H.87V.869H11.292V6.514Z" transform="translate(-0.001 0)"/></g><g transform="translate(6.137 5.645)"><path class="a" d="M191.977,169.125l-2.542-2.6a.434.434,0,0,0-.621.607L190.641,169h-9.334a.434.434,0,1,0,0,.869h9.334l-1.827,1.868a.434.434,0,0,0,.621.607l2.549-2.606A.435.435,0,0,0,191.977,169.125Z" transform="translate(-180.873 -166.395)"/></g></g><rect class="b" width="25" height="25" transform="translate(0 0)"/></svg>