<svg xmlns="http://www.w3.org/2000/svg" width="26" height="26" viewBox="0 0 26 26"><defs><style>.a,.b{fill:#999b9f;}.a{opacity:0.7;}.c{fill:none;}</style></defs><g transform="translate(3.326 5.845)"><path class="a" d="M-288.424,233.338l-4.317,3.832a.648.648,0,0,1-.852.013l-4.637-3.938,4.577-4.85a.492.492,0,0,1,.712.007Z" transform="translate(302.562 -228.246)"/><path class="b" d="M-304.742,231.444V241.79a.322.322,0,0,0,.322.322h18.026a.322.322,0,0,0,.322-.322V231.218a.485.485,0,0,0-.808-.363l-8.044,7.149a.646.646,0,0,1-.848.009l-8.172-6.941A.485.485,0,0,0-304.742,231.444Z" transform="translate(304.742 -229.078)"/></g><rect class="c" width="26" height="26"/></svg>