<svg xmlns="http://www.w3.org/2000/svg" xmlns:xlink="http://www.w3.org/1999/xlink" width="24.957" height="24.957" viewBox="0 0 24.957 24.957"><defs><style>.a{fill:url(#a);}.b{fill:#fdbf00;}.c{fill:#ff9f00;}.d{fill:#ff7816;}</style><linearGradient id="a" x1="0.5" x2="0.5" y2="1" gradientUnits="objectBoundingBox"><stop offset="0" stop-color="#c51d23"/><stop offset="1" stop-color="#c51d23"/></linearGradient></defs><circle class="a" cx="12.479" cy="12.479" r="12.479" transform="translate(0 0)"/><g transform="translate(4.16 6.239)"><path class="b" d="M133.3,11.185l2.725-.385,1.213-2.4,1.213,2.4,2.725.385L139.2,13.072l.462,2.638-2.426-1.252-2.426,1.252.462-2.638Zm0,0" transform="translate(-129.023 -8.149)"/><path class="c" d="M84.273,134.326A3.36,3.36,0,0,0,82.954,136l.9.327a2.409,2.409,0,0,1,4.544,0l.9-.327a3.36,3.36,0,0,0-1.319-1.675c2.214-.963,3.774-3.62,3.774-6.826H90.8a7.424,7.424,0,0,1-1.358,4.448,4.135,4.135,0,0,1-3.312,1.81c-2.619,0-4.669-2.744-4.669-6.258H80.5c0,3.206,1.56,5.863,3.774,6.826Zm0,0" transform="translate(-77.916 -123.424)"/><path class="d" d="M259.774,134.329A3.36,3.36,0,0,0,258.455,136l.9.327a2.409,2.409,0,0,1,2.272-1.608v-.963c-2.619,0-4.669-2.744-4.669-6.258H256c0,3.206,1.56,5.863,3.774,6.826Zm0,0" transform="translate(-253.416 -123.428)"/><path class="c" d="M319.67,266.458c.379,0,1.285-.023,2.572-1.444a3.5,3.5,0,0,0-2.572-1.444c-.379,0-1.285.023-2.572,1.444A3.5,3.5,0,0,0,319.67,266.458Zm0,0" transform="translate(-315.987 -255.128)"/><path class="c" d="M385.355,146.552a3.5,3.5,0,0,0-1.278-2.658c-.311-.217-1.052-.718-2.921-.292a3.493,3.493,0,0,0,1.264,2.659A3.556,3.556,0,0,0,385.355,146.552Zm0,0" transform="translate(-381.156 -138.849)"/><path class="c" d="M396.437,5.162a3.5,3.5,0,0,0,.222-2.941c-.16-.344-.564-1.155-2.4-1.72a3.5,3.5,0,0,0-.222,2.941c.16.344.564,1.154,2.4,1.721Zm0,0" transform="translate(-393.099 -0.5)"/><g transform="translate(10.177 0)"><path class="b" d="M37.173,266.458c.379,0,1.285-.023,2.572-1.444a3.5,3.5,0,0,0-2.572-1.444c-.379,0-1.285.023-2.572,1.444A3.5,3.5,0,0,0,37.173,266.458Zm0,0" transform="translate(-34.601 -255.128)"/><path class="b" d="M2.967,146.089c.311-.217.992-.756,1.23-2.659a3.469,3.469,0,0,0-2.919.292c-.311.217-1.039.756-1.278,2.658A3.722,3.722,0,0,0,2.967,146.089Zm0,0" transform="translate(2.057 -138.677)"/><path class="b" d="M22.583,5.162a3.5,3.5,0,0,0,2.4-1.721c.16-.344.522-1.174-.222-2.941a3.5,3.5,0,0,0-2.4,1.72c-.16.344-.522,1.174.222,2.941Zm0,0" transform="translate(-19.665 -0.5)"/></g><path class="c" d="M257.973,13.072l-.462,2.638,2.426-1.252V8.4l-1.213,2.4L256,11.185Zm0,0" transform="translate(-251.722 -8.149)"/></g></svg>