<svg xmlns="http://www.w3.org/2000/svg" width="25" height="25" viewBox="0 0 25 25"><defs><style>.a,.b,.d{fill:none;}.a,.b{stroke:#152238;stroke-miterlimit:10;}.a{stroke-linecap:round;}.b{stroke-width:0.813px;}.c{fill:#152238;}</style></defs><g transform="translate(4.12 4.114)"><g transform="translate(0 0)"><line class="a" x2="8.424" transform="translate(2.519 3.551)"/><line class="a" x2="8.589" transform="translate(2.354 7.353)"/><line class="a" x2="6.483" transform="translate(2.354 11.025)"/><ellipse class="b" cx="3.167" cy="3.167" rx="3.167" ry="3.167" transform="translate(10.943 9.726)"/><path class="a" d="M-1434.415-291.576v-8.011a.414.414,0,0,0-.413-.413h-12.76a.414.414,0,0,0-.413.413v16.393a.414.414,0,0,0,.413.413h12.45" transform="translate(1448 300)"/><g transform="translate(12.925 11.065)"><path class="c" d="M-831.178,245.18c-.06.612-.546,1-1.313,1.025.468.486.978,1.1,1.481,1.715h-.576c-.468-.564-.905-1.085-1.469-1.685v-.372h.33c.648,0,1-.27,1.037-.684h-1.367v-.3h1.349c-.084-.348-.4-.522-.923-.522h-.426v-.39h2.519v.3h-.983a.9.9,0,0,1,.336.612h.653v.3Z" transform="translate(833.055 -243.969)"/></g></g></g><rect class="d" width="25" height="25"/></svg>