<svg xmlns="http://www.w3.org/2000/svg" width="27.97" height="27.97" viewBox="0 0 27.97 27.97"><defs><style>.a{fill:#152238;}.b{fill:none;}</style></defs><g transform="translate(4.995 3.996)"><path class="a" d="M1926.625-242.83h-12.341a1.885,1.885,0,0,0-1.99,1.757V-225.3a1.884,1.884,0,0,0,1.99,1.757h4.548v-.9h-4.216c-1,0-1.561-.47-1.561-1.35v-14.791c0-.88.565-1.35,1.561-1.35h11.677c1,0,1.561.47,1.562,1.35v5.17h.761v-5.662A1.884,1.884,0,0,0,1926.625-242.83Z" transform="translate(-1912.294 242.83)"/><rect class="a" width="7.419" height="1.24" transform="translate(5.564 4.512)"/><rect class="a" width="4.451" height="1.24" transform="translate(5.564 8.222)"/><path class="a" d="M1986.921-133.867a.742.742,0,0,1-.742.742.742.742,0,0,1-.742-.742.742.742,0,0,1,.742-.742A.742.742,0,0,1,1986.921-133.867Z" transform="translate(-1982.469 139)"/><ellipse class="a" cx="0.742" cy="0.742" rx="0.742" ry="0.742" transform="translate(2.875 8.1)"/><path class="a" d="M2216.294,152.569a1.113,1.113,0,1,0,1.113-1.113,1.113,1.113,0,0,0-1.113,1.113Z" transform="translate(-2203.96 -135.459)"/><path class="a" d="M2131.112,6.322h-.373c0-.015,0-.029,0-.044a3.339,3.339,0,1,0-6.677,0c0,.015,0,.029,0,.044h-.373a1.113,1.113,0,0,0-1.113,1.113v5.193a1.113,1.113,0,0,0,1.113,1.113h7.419a1.112,1.112,0,0,0,1.113-1.113V7.434A1.112,1.112,0,0,0,2131.112,6.322ZM2127.4,4.177a2.335,2.335,0,0,1,2.335,2.335.377.377,0,0,1-.006.056h-4.66c0-.018,0-.036,0-.056A2.335,2.335,0,0,1,2127.4,4.177Zm3.836,7.986a.426.426,0,0,1-.426.426h-6.821a.426.426,0,0,1-.426-.426V7.9a.426.426,0,0,1,.426-.426h6.821a.426.426,0,0,1,.426.426Z" transform="translate(-2114.048 7.032)"/></g><rect class="b" width="27.97" height="27.97"/></svg>