<svg xmlns="http://www.w3.org/2000/svg" width="25" height="25" viewBox="0 0 25 25"><defs><style>.a,.b{fill:none;}.a{stroke:#152238;stroke-miterlimit:10;}</style></defs><g transform="translate(2.425 5.339)"><g transform="translate(0 0.654)"><circle class="a" cx="3.594" cy="3.594" r="3.594" transform="translate(2.233)"/><path class="a" d="M-238.916,217.277v-.545a5.844,5.844,0,0,1,5.827-5.828h0a5.844,5.844,0,0,1,5.827,5.828v.545" transform="translate(238.916 -203.608)"/></g><g transform="translate(10.02)"><circle class="a" cx="3.594" cy="3.594" r="3.594" transform="translate(0.709)"/><path class="a" d="M-227.694,212.082a5.815,5.815,0,0,1,4.3-1.909h0A5.844,5.844,0,0,1-217.564,216v.545" transform="translate(227.694 -202.876)"/></g></g><rect class="b" width="25" height="25" transform="translate(0 0)"/></svg>