<svg xmlns="http://www.w3.org/2000/svg" width="270.764" height="194.57" viewBox="0 0 270.764 194.57"><defs><style>.a,.c{fill:#e9e9e9;}.b{fill:#f2f2f2;}.c{opacity:0.07;}.d{fill:#0cb417;}.e{fill:#099513;}.f{fill:#f95858;}.g{fill:#e53838;}.h{fill:#fff;}.i{fill:#e8f2fc;}.j{fill:#f93;}.k{fill:#474747;}.ab,.l{fill:#333;}.m{fill:#e54848;}.aa,.n{fill:#ffb19e;}.o{fill:#ff4751;}.p{fill:#cc3241;}.ac,.q{fill:#f48f7a;}.r{fill:#811519;}.s,.y{fill:#8b272b;}.t{fill:#d2a1a3;opacity:0.13;}.u{fill:#c5c2c2;}.v{fill:#a055f6;}.w{fill:#c54949;}.x{fill:#d57e7e;}.x,.z{opacity:0.41;}.y{opacity:0.32;}.z{fill:#ecc9c9;}.aa,.ab,.ac{fill-rule:evenodd;}.ad{fill:#a31919;}</style></defs><path class="a" d="M284.877,283.67c15.9,0,25.529-16.284,16.183-27.879q-.3-.367-.61-.723c-5.715-6.479-14.388-8.8-22.069-12.415a15.307,15.307,0,0,1-5.74-4.045c-2.064-2.616-2.559-6.274-2.133-9.637,1.785-14.075,17.134-22.751,19.611-36.71,1.874-10.56-4.591-21.283-13.347-26.872s-19.341-6.995-29.588-7.432-20.635-.049-30.608-2.548c-2.63-.659-5.354-1.607-7.141-3.732-2.027-2.41-2.452-5.893-2.13-9.087.869-8.609,20.485-38.206,10.66-47.972a18.018,18.018,0,0,0-14.4-5.4c-5.28.53-10.212,2.954-14.835,5.678-9.769,5.755-43.844,43.9-56.105,49.67-12.05,5.666-25.888,4-39.094,3.728s-27.883,1.7-36.514,12.168c-3.057,3.709-5.168,8.705-4.141,13.485a17.041,17.041,0,0,0,4.455,7.761c4.634,5.021,10.675,8.484,15.057,13.746s6.7,13.616,2.574,19.105a19.077,19.077,0,0,1-6.2,4.783c-12.739,7.183-27.031,14.554-32.6,28.542a34.8,34.8,0,0,0-.677,22.432c2.235,7.855,10.09,13.349,19.087,13.349Z" transform="translate(-33.966 -89.14)"/><path class="b" d="M357.537,255.074c-5.715-6.479-14.388-8.8-22.069-12.415a15.307,15.307,0,0,1-5.74-4.045c-2.064-2.616-2.559-6.274-2.133-9.637,1.785-14.075,17.134-22.751,19.611-36.71,1.874-10.56-4.591-21.283-13.347-26.872s-19.341-6.995-29.588-7.432-20.635-.05-30.609-2.548c-2.63-.659-5.354-1.607-7.141-3.732-2.027-2.41-2.452-5.893-2.13-9.087.869-8.609,20.485-38.206,10.66-47.972a18.31,18.31,0,0,0-12.312-5.468c6.207,1.688,10.746,5.236,7.442,12.506-7.631,16.789-78.449,72.649-28.693,78.144s-32.661,49.755,4.884,52.808c28.641,2.329-30.113,35.881-59.493,51.063H341.964c15.9,0,25.529-16.284,16.182-27.879Q357.851,255.43,357.537,255.074Z" transform="translate(-91.053 -89.146)"/><path class="b" d="M94.078,139.52s51.569,17.751,74.5-23.744S50.8,124.1,94.078,139.52Z" transform="translate(-53.3 -93.059)"/><path class="c" d="M162.787,99.65c3.654,2.426,4.379,6.8.559,13.713-16.223,29.357-46.777,29.059-63.266,26.372,6.018,1.872,52.425,14.809,73.846-23.954C180.262,104.316,174.1,99.825,162.787,99.65Z" transform="translate(-58.648 -93.064)"/><g transform="translate(11.001 119.939)"><path class="d" d="M64.326,336s-1.882-1.758-.619-8.427,4.468-13.074,2.9-20.309-13.9-25.478-13.942-26.691-3.8,21.223,2.572,30.061,7.143,11.9,6.86,16.552.066,8.391.765,9.471Z" transform="translate(-51.521 -280.53)"/><path class="e" d="M63.839,322.619c-.741,2.975-1.189,10.435,0,12.22.11.167.269.072.467-.236-.361-1.233-.6-3.394.085-7,1.263-6.67,4.468-13.074,2.9-20.309s-13.9-25.478-13.942-26.691c0,0,1.858,15.2,8.114,25.66A19.977,19.977,0,0,1,63.839,322.619Z" transform="translate(-52.2 -280.559)"/></g><path class="d" d="M74.91,345.236s-3.622-9.042,2.516-16.872S93.381,310.482,93.576,306.5c0,0,2.522,18.909-5.467,24.261S74.517,336.967,75.9,345.2Z" transform="translate(-48.855 -170.287)"/><path class="e" d="M84.059,326.959c-8.908,6.485-9.637,13.954-8.255,17.418a.884.884,0,0,0,.58.522c-1.194-7.949,4.363-8.854,12.251-14.139C96.625,325.408,94.1,306.5,94.1,306.5S92.968,320.474,84.059,326.959Z" transform="translate(-49.381 -170.287)"/><path class="d" d="M54.151,343.294a31.609,31.609,0,0,0,.543-9.958c-.618-5.169-6.018-8.077-11.064-13.537-2.6-2.809-3.363-17.665-1.754-19.046,0,0-8.908,10.8-7.534,18.7s15.906,13.041,17.251,16.86a21.21,21.21,0,0,1,1.233,7.026Z" transform="translate(-34.053 -168.142)"/><g transform="translate(3.734 132.612)"><path class="e" d="M41,305.123c-2.945,7.973.073,17.629,9.854,23.627,7.2,4.415,4.907,13.6,4.907,13.6l1.176-3.623a28.754,28.754,0,0,0-.109-5.268c-.618-5.169-6.018-8.077-11.064-13.537-2.5-2.71-3.306-16.621-1.916-18.845A47.573,47.573,0,0,0,41,305.123Z" transform="translate(-39.924 -300.874)"/><path class="e" d="M46.192,300.955c.1-.127.162-.2.162-.2A.91.91,0,0,0,46.192,300.955Z" transform="translate(-42.264 -300.754)"/></g><g transform="translate(27.918 155.595)"><path class="e" d="M78.516,356.388s2.088-7.747,7.252-8.79,11.093-8.673,11.414-10.17C97.181,337.429,96.311,351.819,78.516,356.388Z" transform="translate(-78.516 -337.429)"/><path class="d" d="M86.67,350.16c-3.164,1.582-4.479,3.71-4.947,5.641,15.843-5.095,16.656-18.372,16.656-18.372a5.672,5.672,0,0,1-.8,1.513C96.02,341.665,92.259,347.365,86.67,350.16Z" transform="translate(-79.713 -337.429)"/></g><path class="f" d="M80.258,363.131H53.251L56.458,383.3a3.15,3.15,0,0,0,3.111,2.656h14.37a3.15,3.15,0,0,0,3.111-2.656Z" transform="translate(-41.166 -191.429)"/><path class="g" d="M79.727,366.468l.531-3.337H53.251l.531,3.337Z" transform="translate(-41.165 -191.429)"/><path class="g" d="M82.142,363.131,78.934,383.3a3.15,3.15,0,0,1-3.111,2.656h6.543a3.15,3.15,0,0,0,3.111-2.656l3.207-20.172Z" transform="translate(-49.592 -191.429)"/><g transform="translate(112.641 83.951)"><rect class="h" width="5.621" height="45.976" transform="translate(27.157 64.644)"/><rect class="i" width="2.208" height="45.976" transform="translate(30.57 64.644)"/><path class="h" d="M267.872,393.615H237.144a1.883,1.883,0,0,0-1.883,1.883h0a1.883,1.883,0,0,0,1.883,1.883h30.728a1.883,1.883,0,0,0,1.883-1.883h0A1.883,1.883,0,0,0,267.872,393.615Z" transform="translate(-221.756 -286.76)"/><path class="i" d="M268.036,393.615H237.307a1.876,1.876,0,0,0-1.607.916h26.612a1.872,1.872,0,0,1,1.607,2.849h4.116a1.883,1.883,0,0,0,0-3.765Z" transform="translate(-221.92 -286.76)"/><rect class="i" width="5.621" height="4.094" transform="translate(27.157 64.644)"/><path class="j" d="M275.612,223.648a6.4,6.4,0,0,0-2.6-.545H241.364a6.444,6.444,0,0,0-6.329,5.234l-9.917,51.844a6.471,6.471,0,0,0,0,2.438c0,.018.009.034.013.052h-8.8a2.622,2.622,0,0,0,0,5.243H244.77v-.08H263.1a6.444,6.444,0,0,0,6.329-5.234l9.911-51.844A6.452,6.452,0,0,0,275.612,223.648Z" transform="translate(-213.711 -223.103)"/><path class="i" d="M279.339,231.084l-9.908,51.846a6.439,6.439,0,0,1-6.327,5.23H244.771v.083H216.336a2.622,2.622,0,1,1,0-5.244h8.8a.162.162,0,0,1-.014-.055c.076.007.166.007.242.007H257a8.866,8.866,0,0,0,8.708-7.2l9.9-51.777A6.45,6.45,0,0,1,279.339,231.084Z" transform="translate(-213.712 -223.429)"/><path class="h" d="M265.776,306.1l-.062.31a8.866,8.866,0,0,1-8.708,7.2H225.364c-.076,0-.166,0-.242-.007a.162.162,0,0,0,.014.055h-8.8a2.616,2.616,0,0,0-2.588,2.222v-7.086c0-.014-.007-.034-.007-.055a2.371,2.371,0,0,1,2.395-2.636Z" transform="translate(-213.714 -254.09)"/><path class="h" d="M282.339,223.648l-9.9,51.777a8.874,8.874,0,0,1-8.708,7.2H232.086c-.078,0-.164,0-.242-.006a6.472,6.472,0,0,1,0-2.438l9.917-51.844a6.444,6.444,0,0,1,6.329-5.234h31.646A6.4,6.4,0,0,1,282.339,223.648Z" transform="translate(-220.437 -223.103)"/></g><g transform="translate(43.618 72.066)"><path class="k" d="M159.5,204.138H105.625a2.055,2.055,0,0,0-2.034,2.351l4.613,31.674a2.055,2.055,0,0,0,2.034,1.759H164.11a2.055,2.055,0,0,0,2.034-2.351L161.53,205.9A2.054,2.054,0,0,0,159.5,204.138Z" transform="translate(-103.569 -204.138)"/><path class="l" d="M151.961,204.138H105.625a2.055,2.055,0,0,0-2.034,2.351l2.039,14A41.354,41.354,0,0,0,122.2,223.9C137.652,223.9,146.755,215.689,151.961,204.138Z" transform="translate(-103.569 -204.138)"/><g transform="translate(19.842 24.175)"><path class="l" d="M146.878,242.717h-10.2a1.443,1.443,0,0,0-1.43,1.652l3.091,21.213a1.65,1.65,0,0,0,.012.2l.14.837a1.442,1.442,0,0,0,1.426,1.234h10.067Z" transform="translate(-135.231 -242.716)"/><path class="k" d="M167.345,266.369a1.462,1.462,0,0,0-1.462-1.439h-7.717a2.275,2.275,0,0,1-2.254-1.967l-2.262-16.525h1.34a1.444,1.444,0,0,0,1.429-1.652l-.137-.837a1.444,1.444,0,0,0-1.429-1.236h-2.677a2.018,2.018,0,0,0-2,2.286L153,266.023a2.11,2.11,0,0,0,2.091,1.829l10.793,0a1.463,1.463,0,0,0,1.463-1.485Z" transform="translate(-140.804 -242.715)"/></g><g transform="translate(38.906 30.245)"><path class="l" d="M167.584,253.368a.966.966,0,1,1-.966-.966A.966.966,0,0,1,167.584,253.368Z" transform="translate(-165.652 -252.402)"/><path class="l" d="M175.5,253.368a.966.966,0,1,1-.966-.966A.966.966,0,0,1,175.5,253.368Z" transform="translate(-168.607 -252.402)"/><circle class="l" cx="0.966" cy="0.966" r="0.966" transform="translate(9.307)"/></g><path class="l" d="M190.064,218.828l2.816,19.335a2.055,2.055,0,0,0,2.034,1.759h.808a2.055,2.055,0,0,0,2.034-2.351L193.142,205.9a2.054,2.054,0,0,0-2.034-1.758H190.3a2.054,2.054,0,0,0-2.034,2.351l1.8,12.339" transform="translate(-135.181 -204.138)"/><g transform="translate(14.941 3.458)"><path class="k" d="M146.97,209.656H128.157a.746.746,0,0,0-.737.865l.126.779a.747.747,0,0,0,.737.627H147.1a.746.746,0,0,0,.737-.865l-.127-.779A.746.746,0,0,0,146.97,209.656Z" transform="translate(-127.41 -209.656)"/></g></g><path class="l" d="M261.369,211.072c-.6-4.585-7.313-2.441-4.792-6.714,2.331-3.952-.382-5.7-3.59-6.316-4.09-.786-1.768-2.4-3.758-6.213-2.529-4.849-6.429-3.408-6.429-3.408a9,9,0,0,0-9.871,1.545c-5.249,4.429-4.1,8.347-1.295,13.727,1.42,2.72-.323,5.142-1.566,10.141-1.491,6,5.914,18.069,21.758,9.915C257.954,220.594,261.686,213.5,261.369,211.072Z" transform="translate(-106.875 -125.895)"/><path class="f" d="M229.14,225.632a8.993,8.993,0,0,0-4.88,2.72c-1.654,1.655-9.755,17.778-9.755,17.778l-7.476-22.9-5.474.421s6.163,36.823,10.959,36.891c4.535.065,18.937-23.774,18.937-23.774Z" transform="translate(-96.532 -139.202)"/><path class="f" d="M256.217,234.716l4.793,17.944-28.341,2.316.13,5.117s32.671.146,38.826.081c4.1-.043-3.618-32.5-8.542-36.212-3.893-2.937-14.657-2.154-14.657-2.154l-7.67,3.256s-8.9,8.81-3.585,17.1c4.184,6.532-1.149,19.221-1.149,19.221l18.115,1.078,16.178.153Z" transform="translate(-108.148 -138.634)"/><path class="m" d="M239.808,256.535l1.015-.186c.971-4.243,1.145-10.04-1.069-12.826-4.387-5.521.13-13.539,2.667-16.438h0c-.406.41-8.75,8.993-3.569,17.087C241.323,248.038,240.717,253.071,239.808,256.535Z" transform="translate(-109.823 -140.639)"/><path class="n" d="M228.124,276.677c-3,.11-6.2,1.182-7.7,2.945a.605.605,0,0,0,.464.995h7.286Z" transform="translate(-103.521 -159.153)"/><g transform="translate(126.85 61.686)"><path class="n" d="M249.819,207.717v6.051l-5.423,6.21-.034-.069-1.477-3.16v-3.395a6.884,6.884,0,0,1-5.733-5.361l-.766-4.188a13.145,13.145,0,0,0,7.259-3.7A15.5,15.5,0,0,0,246,203.253c1.008,1,2.4,1.249,2.932,1.794A3.33,3.33,0,0,1,249.819,207.717Z" transform="translate(-236.384 -192.253)"/><path class="o" d="M251.24,197.8a16.763,16.763,0,0,0-1.166-4.728c-1.109-2.508-2.671-5.445-5.911-5.453,0,0,7.868-1.223,9.186,9.732Z" transform="translate(-239.288 -187.575)"/><g transform="translate(9.575 8.568)"><path class="o" d="M258.749,204.7a3.562,3.562,0,1,0-3.119,4.2A3.7,3.7,0,0,0,258.749,204.7Z" transform="translate(-251.663 -201.247)"/><path class="p" d="M256.294,208.527a3.565,3.565,0,0,1-3.8-3.306,3.605,3.605,0,0,1,2.6-3.968c-.1,0-.194.005-.292.016a3.849,3.849,0,0,0,.823,7.63,3.32,3.32,0,0,0,1.612-.629A3.178,3.178,0,0,1,256.294,208.527Z" transform="translate(-251.663 -201.249)"/><path class="p" d="M258.749,205.918a1.727,1.727,0,1,0-1.512,2.034A1.795,1.795,0,0,0,258.749,205.918Z" transform="translate(-253.026 -202.366)"/></g><path class="q" d="M251.883,217.15a21.805,21.805,0,0,1-2.539,2.774,1.8,1.8,0,0,0-.635,1.394l-.476,4.954-1.477-3.16v-3.381l.034-.034S250.206,219.179,251.883,217.15Z" transform="translate(-240.256 -198.616)"/><g transform="translate(7.66 14.904)"><path class="o" d="M251.22,214.728l-.06-.345c1.978-.338,3.425-3,3.439-3.026l.309.165C254.846,211.639,253.365,214.362,251.22,214.728Z" transform="translate(-249.56 -211.358)"/><path class="o" d="M250.635,216.169c-.047-.325-.538-.5-1.1-.4s-.974.453-.927.777.538.5,1.1.4S250.682,216.493,250.635,216.169Z" transform="translate(-248.607 -212.994)"/></g></g><path class="n" d="M205.493,217.953s.773-6.336.077-6.568-1.391,2.473-1.391,2.473-2.936-5.718-4.945-5.1,1.685,9.411,1.685,9.411Z" transform="translate(-95.442 -133.78)"/><path class="m" d="M241.37,262.6l22.318-1.866a1.287,1.287,0,0,0,1.157-1.531c-.825-4.172-3.207-16.134-3.35-15.777-.173.432,2.245,14.079-.6,15.461C258.941,259.828,241.37,262.6,241.37,262.6Z" transform="translate(-111.396 -146.735)"/><g transform="translate(102.136 122.725)"><g transform="translate(31.183 54.953)"><path class="n" d="M261.4,376.867a.726.726,0,0,0-.425.289c-1.421,1.976-2.68,2.443-5.172,2.778a1.475,1.475,0,0,0-.467.156,3.179,3.179,0,0,0,.449-2.871,13.921,13.921,0,0,0-1.421-2.384l3.64-2.167S260.233,375.243,261.4,376.867Z" transform="translate(-249.564 -372.667)"/><path class="l" d="M261.234,383.986c-.644.617-11.031,6.294-13.5,7.719-.3.174-.912.493-1.024.163-.175-.515,4.316-9.183,6.231-9.442,2.49-.337,3.751-.8,5.169-2.78a.725.725,0,0,1,1.2.014C260.3,381.167,261.752,383.491,261.234,383.986Z" transform="translate(-246.707 -375.157)"/></g><path class="r" d="M222.829,284.976s-25.207,11.684-25.875,19.788c-.595,7.207,36.554,40.177,36.554,40.177l5.874-2.418-20.331-32.772s21.538-10.616,26.8-23.4Z" transform="translate(-196.948 -284.976)"/><path class="s" d="M210.324,304.155a50.424,50.424,0,0,0-3.842,12.049c2.854,3.388,6.453,7.2,10.174,10.954-2.748-10.858-5.188-21.747-4.345-23.306,1.607-2.974,12.289-10.882,19.837-14.814C232.149,289.038,214.292,296.524,210.324,304.155Z" transform="translate(-200.507 -286.492)"/></g><g transform="translate(113.859 183.321)"><path class="n" d="M237.8,387a.726.726,0,0,0-.512.044c-2.2,1.03-3.532.822-5.869-.1a1.478,1.478,0,0,0-.484-.092,3.178,3.178,0,0,0,1.795-2.286,13.928,13.928,0,0,0-.075-2.774l4.235-.113S237.579,385.01,237.8,387Z" transform="translate(-221.36 -381.672)"/><path class="l" d="M232.187,395.758c-.863.224-13.122.088-15.971.125a.551.551,0,0,1-.551-.651c.1-.535,8.253-5.9,10.049-5.194,2.337.922,3.665,1.132,5.869.1a.725.725,0,0,1,1.036.6C232.752,392.536,232.88,395.578,232.187,395.758Z" transform="translate(-215.655 -384.771)"/></g><path class="r" d="M263.822,286.517s2.112,14.274-10.683,17.888a173.575,173.575,0,0,1-20.9,4.3l.774,40.515h-6.728s-12.35-43.322-10.6-46.548c1.984-3.663,17.7-14.788,24.414-16.8Z" transform="translate(-101.742 -162.588)"/><path class="t" d="M239.09,308.96a173.582,173.582,0,0,0,20.9-4.3c12.795-3.613,10.683-17.888,10.683-17.888l-7.921-.213c-2.379,5.117-10.119,17.788-28.888,19.155l4.249,43.762h1.749Z" transform="translate(-108.594 -162.842)"/><g transform="translate(40.362 121.424)"><g transform="translate(4.049 1.924)"><path class="u" d="M107.651,357.653l-2.817-.022,11.712-70.391,2.834-.022Z" transform="translate(-104.834 -286.437)"/><path class="u" d="M285.825,357.164l2.992.023L274.3,285.971l-2.974.023Z" transform="translate(-166.989 -285.971)"/></g><g transform="translate(14.994 1.924)"><path class="u" d="M125.129,291.121l.772-3.9-2.834.022-.767,3.881Z" transform="translate(-122.299 -286.437)"/><path class="u" d="M275.249,290.655l-.953-4.685-2.974.023.947,4.662Z" transform="translate(-177.934 -285.971)"/></g><path class="u" d="M226.814,282.9H99.8a1.431,1.431,0,0,0-1.431,1.431h0a1.431,1.431,0,0,0,1.431,1.431h127.01a1.431,1.431,0,0,0,1.431-1.431h0A1.431,1.431,0,0,0,226.814,282.9Z" transform="translate(-98.373 -282.901)"/></g><g transform="translate(44.95 8.616)"><g transform="translate(35.552 29.468)"><path class="v" d="M200.543,170.853l-3.347-19.38a1.825,1.825,0,0,0-1.806-1.562l-31.137.34a1.825,1.825,0,0,0-1.806,2.088l2.937,17,1.485,9.628a.564.564,0,0,0,1.027.226l3.963-5.963,26.879-.294A1.825,1.825,0,0,0,200.543,170.853Z" transform="translate(-162.427 -149.912)"/><g transform="translate(8.494 6.013)"><path class="h" d="M194.531,159.507H176.486a.5.5,0,0,0-.5.585l.085.526a.5.5,0,0,0,.5.424h18.045a.5.5,0,0,0,.5-.585l-.085-.526A.5.5,0,0,0,194.531,159.507Z" transform="translate(-175.981 -159.507)"/><g transform="translate(0.606 4.79)"><path class="h" d="M195.5,167.15H177.453a.5.5,0,0,0-.5.585l.085.526a.5.5,0,0,0,.5.424h18.046a.5.5,0,0,0,.5-.585l-.085-.526A.5.5,0,0,0,195.5,167.15Z" transform="translate(-176.949 -167.15)"/></g><g transform="translate(6.002 9.99)"><path class="h" d="M194.415,175.448l-8.35.014a.5.5,0,0,0-.5.585l.085.526a.5.5,0,0,0,.5.424l8.351-.014a.5.5,0,0,0,.5-.585l-.085-.526A.5.5,0,0,0,194.415,175.448Z" transform="translate(-185.56 -175.448)"/></g></g></g><g transform="translate(165.409)"><path class="f" d="M404.39,122.588l4.143-18.229a1.087,1.087,0,0,0-1.111-1.47l-29.417.32a2.82,2.82,0,0,0-2.485,1.964l-3.635,16-2.225,9.056c-.117.479.452.617.881.213l5.972-5.609,25.393-.276A2.819,2.819,0,0,0,404.39,122.588Z" transform="translate(-369.644 -102.889)"/><g transform="translate(11.393 5.92)"><g transform="translate(1.172)"><path class="h" d="M406.623,112.335H390.474a.741.741,0,0,0-.655.523l-.112.471a.285.285,0,0,0,.294.379H406.15a.739.739,0,0,0,.655-.524l.112-.471A.285.285,0,0,0,406.623,112.335Z" transform="translate(-389.695 -112.335)"/></g><g transform="translate(0 4.286)"><path class="h" d="M404.753,119.175H388.6a.741.741,0,0,0-.655.524l-.112.471a.285.285,0,0,0,.294.38h16.15a.741.741,0,0,0,.655-.524l.112-.471A.285.285,0,0,0,404.753,119.175Z" transform="translate(-387.824 -119.175)"/></g><g transform="translate(2.963 8.94)"><path class="h" d="M400.81,126.6l-7.479.013a.741.741,0,0,0-.655.523l-.112.471a.285.285,0,0,0,.294.379l7.479-.013a.739.739,0,0,0,.655-.523l.112-.471A.285.285,0,0,0,400.81,126.6Z" transform="translate(-392.552 -126.601)"/></g></g></g><g transform="translate(0 25.398)"><path class="f" d="M138.277,168.288a.564.564,0,0,0,.916-.53L135.2,144.742a1.549,1.549,0,0,0-1.533-1.325l-26.424.289a1.549,1.549,0,0,0-1.533,1.772l2.84,16.446a1.549,1.549,0,0,0,1.533,1.326l20.347-.222a4.08,4.08,0,0,1,2.655.943Z" transform="translate(-105.695 -143.417)"/><g transform="translate(5.805 6.908)"><path class="h" d="M133.507,154.44H115.462a.505.505,0,0,0-.5.585l.085.526a.5.5,0,0,0,.5.424h18.045a.5.5,0,0,0,.5-.585l-.085-.526A.5.5,0,0,0,133.507,154.44Z" transform="translate(-114.958 -154.44)"/><g transform="translate(0.607 4.79)"><path class="h" d="M134.475,162.084H116.43a.5.5,0,0,0-.5.585l.085.526a.5.5,0,0,0,.5.424H134.56a.5.5,0,0,0,.5-.585l-.085-.526A.5.5,0,0,0,134.475,162.084Z" transform="translate(-115.925 -162.084)"/></g></g></g></g><g transform="translate(162.218 15.191)"><g transform="translate(0 27.767)"><path class="r" d="M352.649,244.45l-.1,3.623L350.377,332.2h-8.692l-7.7-72.083a.03.03,0,0,0-.007.021l-9.787,24.3L330.87,332.2l-3.212.028-5.313.049s-15.893-47.66-15.573-50.748,12.256-36.764,12.256-36.764Z" transform="translate(-298.029 -190.08)"/><path class="f" d="M361.123,159.99l-16.329-2.245-.383-.056-7.809.035-.07.014-9.326,2.334V212.52h33.916Z" transform="translate(-305.66 -157.689)"/><path class="n" d="M425.917,172.513s1.187-7.415,2.049-7.451.768,3.247.768,3.247,5.179-5.509,7.249-4.157-4.966,10.091-4.966,10.091Z" transform="translate(-342.511 -160.023)"/><path class="w" d="M323.78,157.795l.884,57.917H312.452l-.862-15.852-16.2-.263a2.483,2.483,0,0,1-2.466-3.168l8.072-28.065a9.538,9.538,0,0,1,6.863-6.633l15.84-3.964Z" transform="translate(-292.823 -157.718)"/><path class="w" d="M405.142,172.18l-15.709,32.271a2.679,2.679,0,0,1-4.638.09L372.5,184.167l-.612,31.548H358.844l-3.651-57.924.049-.014,16.592,2.281a9.617,9.617,0,0,1,7.21,5.312l8.393,17.308a.658.658,0,0,0,1.092.132L399.2,170.058Z" transform="translate(-316.108 -157.722)"/><path class="w" d="M322.647,220.188h15.92l.154-8.152L322.8,211.8Z" transform="translate(-303.957 -177.892)"/><path class="n" d="M348.169,218.074c4.49-.164,9.293-1.77,11.541-4.411a.907.907,0,0,0-.7-1.49H348.1Z" transform="translate(-313.459 -178.03)"/><path class="x" d="M332.508,225.515l.015-.261-9.74-.072.854,15.7,2.906-13.006Z" transform="translate(-304.008 -182.886)"/><path class="y" d="M374.69,250.231l-2.174,84.127H371.9l-5.836-84.127Z" transform="translate(-320.167 -192.238)"/><path class="x" d="M335.482,205.072s-21.6,1.564-21.457,1.154l3.749-12.918.055.195.368,9.012C318.247,203.738,334.356,204.753,335.482,205.072Z" transform="translate(-300.738 -170.987)"/><path class="z" d="M399.744,213.016l15.709-32.271-.073-.024c-1.667-.008-16.284,30.554-17.822,31.323-1.751.875-14.747-19.311-14.747-19.311l12.294,20.374A2.68,2.68,0,0,0,399.744,213.016Z" transform="translate(-326.419 -166.288)"/><g transform="translate(14.32 142.043)"><path class="l" d="M326.657,384.413c-1.874,3.839-10.783,5.779-10.783,5.779a2.451,2.451,0,0,0,.374,2.566c1.018,1.433,10.392.555,11.567.295a4.088,4.088,0,0,0,1.984-1.214,6.552,6.552,0,0,0,1.23,1.069,10.629,10.629,0,0,0,2.834-.268c.563-1.527,0-7.358-.16-8.288Z" transform="translate(-315.673 -384.352)"/></g><g transform="translate(44.082 142.043)"><path class="l" d="M370.618,384.413c1.874,3.839,10.783,5.779,10.783,5.779a2.45,2.45,0,0,1-.375,2.566c-1.017,1.433-10.391.555-11.566.295a4.088,4.088,0,0,1-1.984-1.214,6.553,6.553,0,0,1-1.23,1.069,10.628,10.628,0,0,1-2.834-.268c-.563-1.527,0-7.358.16-8.288Z" transform="translate(-363.167 -384.352)"/></g><path class="y" d="M331.476,293.786l6.679,47.758-3.212.028c-1.982-10.284-8.912-44.67-8.654-46.826.3-2.573,14.537-24.533,14.975-25.263Z" transform="translate(-305.314 -199.425)"/></g><g transform="translate(24.614)"><g transform="translate(0.681)"><path class="aa" d="M350.35,153.746c-1.184.945-4.045,2.959-4.045,2.959s-2.911-1.994-4.114-2.952l-.009-6.912h8.168Z" transform="translate(-336.545 -125.873)"/><path class="aa" d="M350.355,146.841v2.891a6.44,6.44,0,0,1-8.168.033v-2.925Z" transform="translate(-336.547 -125.873)"/><path class="ab" d="M333.843,129.881H352.2l.283-5.109c4.057-1.716,1.014-11.391,1.014-11.391.234,2.341-6.086,2.418-8.582,2.029a6.79,6.79,0,0,0-4.213.624s-7.958-1.716-7.49,9.441A20.553,20.553,0,0,0,333.843,129.881Z" transform="translate(-333.187 -113.381)"/><g transform="translate(0.035 7.576)"><path class="aa" d="M351.651,129.277v4.6a7.148,7.148,0,0,1-2.241,5.2c-.234.207-.468.432-.711.657a6.437,6.437,0,0,1-8.82,0l-.7-.657a7.1,7.1,0,0,1-2.25-5.186v-3.514a27.7,27.7,0,0,0,5.052-4.912S345.214,128.576,351.651,129.277Z" transform="translate(-334.619 -125.471)"/><path class="ac" d="M350.355,148.669v1.746a6.44,6.44,0,0,1-8.168.033V148.7A6.43,6.43,0,0,0,350.355,148.669Z" transform="translate(-336.582 -134.132)"/><path class="aa" d="M337.38,138.374a2.337,2.337,0,0,0-3.263-3.264,1.412,1.412,0,0,0-.444.444,2.337,2.337,0,0,0,3.264,3.264A1.41,1.41,0,0,0,337.38,138.374Z" transform="translate(-333.243 -128.91)"/><path class="aa" d="M360.776,138.375a2.33,2.33,0,0,0-3.1-3.358,1.773,1.773,0,0,0-.7.7,2.33,2.33,0,0,0,3.358,3.1A1.4,1.4,0,0,0,360.776,138.375Z" transform="translate(-341.978 -128.91)"/></g></g><g transform="translate(0 1.822)"><path class="ad" d="M352.372,126.647h-.7V124.23c0-4.013-3.659-7.277-8.158-7.277h-.344c-4.5,0-8.159,3.264-8.159,7.277v2.416h-.7V124.23c0-4.379,3.973-7.941,8.856-7.941h.344c4.883,0,8.856,3.563,8.856,7.941Z" transform="translate(-332.928 -116.289)"/><g transform="translate(0 9.069)"><g transform="translate(16.896)"><path class="f" d="M361.03,130.761h0a1.974,1.974,0,0,0-1.968,1.968v3.507a1.974,1.974,0,0,0,1.968,1.968h0A1.974,1.974,0,0,0,363,136.237v-3.507A1.974,1.974,0,0,0,361.03,130.761Z" transform="translate(-359.062 -130.761)"/><path class="p" d="M361.851,130.761a1.937,1.937,0,0,0-.59.1,1.969,1.969,0,0,1,1.377,1.867v3.507a1.968,1.968,0,0,1-1.377,1.867,1.918,1.918,0,0,0,.59.1,1.974,1.974,0,0,0,1.968-1.968v-3.507A1.974,1.974,0,0,0,361.851,130.761Z" transform="translate(-359.883 -130.761)"/></g><path class="f" d="M334.069,130.761h0a1.974,1.974,0,0,0-1.968,1.968v3.507a1.974,1.974,0,0,0,1.968,1.968h0a1.974,1.974,0,0,0,1.968-1.968v-3.507A1.974,1.974,0,0,0,334.069,130.761Z" transform="translate(-332.101 -130.761)"/><path class="p" d="M334.89,130.761a1.937,1.937,0,0,0-.59.1,1.969,1.969,0,0,1,1.377,1.867v3.507A1.968,1.968,0,0,1,334.3,138.1a1.918,1.918,0,0,0,.59.1,1.974,1.974,0,0,0,1.968-1.968v-3.507A1.974,1.974,0,0,0,334.89,130.761Z" transform="translate(-332.922 -130.761)"/><g transform="translate(11.682 6.288)"><path class="o" d="M353.706,144.148l-.025-.391c2.244-.142,4.171-2.934,4.191-2.962l.324.221C358.113,141.138,356.139,143.994,353.706,144.148Z" transform="translate(-351.84 -140.795)"/><path class="o" d="M353.043,145.522c-.014-.367-.54-.624-1.175-.574s-1.139.389-1.126.755.54.624,1.175.574S353.056,145.889,353.043,145.522Z" transform="translate(-350.743 -142.343)"/></g></g></g></g><g transform="translate(16.708 37.978)"><path class="k" d="M350.692,173.984H322.186a2.772,2.772,0,0,0-2.7,2.97l.748,18.348A2.809,2.809,0,0,0,323,197.979h26.874a2.809,2.809,0,0,0,2.767-2.676l.748-18.348A2.772,2.772,0,0,0,350.692,173.984Z" transform="translate(-319.484 -173.984)"/><path class="l" d="M351.131,173.984H322.624a2.627,2.627,0,0,0-1.965.887,2.567,2.567,0,0,1,.735-.118H349.9a2.771,2.771,0,0,1,2.7,2.97l-.747,18.348a2.777,2.777,0,0,1-.761,1.778,2.811,2.811,0,0,0,1.991-2.547l.748-18.348A2.772,2.772,0,0,0,351.131,173.984Z" transform="translate(-319.923 -173.984)"/><path class="l" d="M347.515,191.963a3.23,3.23,0,1,0-3.23,3.23A3.23,3.23,0,0,0,347.515,191.963Z" transform="translate(-327.537 -179.49)"/></g></g></svg>