<svg xmlns="http://www.w3.org/2000/svg" width="37.5" height="37.5" viewBox="0 0 37.5 37.5"><defs><style>.a{fill:none;opacity:0.48;}.b{fill:#707070;}</style></defs><rect class="a" width="37.5" height="37.5" transform="translate(0)"/><g transform="translate(6.415 6.415)"><path class="b" d="M20.609,25.642a11.013,11.013,0,0,1-3.772-.8,28.3,28.3,0,0,1-9.517-6.517A28.323,28.323,0,0,1,.8,8.8C-.265,5.979-.267,3.661.794,2.6c.153-.153.308-.317.468-.486C2.231,1.1,3.326-.05,4.776,0a4.205,4.205,0,0,1,2.96,1.9c2.931,3.645,1.609,4.944.08,6.45l-.27.267c-.25.25-.723,1.408,3.674,5.805a24.38,24.38,0,0,0,3.637,3.121c.616.4,1.717,1.006,2.169.554l.272-.274c1.5-1.526,2.8-2.843,6.445.085a4.2,4.2,0,0,1,1.9,2.961c.06,1.45-1.1,2.547-2.115,3.515-.168.16-.332.316-.485.467A3.36,3.36,0,0,1,20.609,25.642ZM4.673.862c-1.031,0-1.961.98-2.785,1.847-.166.174-.326.343-.484.5-.791.79-.711,2.866.2,5.29A27.455,27.455,0,0,0,7.93,17.714a27.435,27.435,0,0,0,9.212,6.319c2.424.916,4.5.994,5.29.2.158-.158.327-.318.5-.483.886-.842,1.891-1.8,1.847-2.854A3.487,3.487,0,0,0,23.2,18.577c-3.035-2.441-3.884-1.579-5.291-.152l-.276.279c-.673.674-1.765.524-3.249-.44a25.184,25.184,0,0,1-3.777-3.235C6.963,11.38,5.8,9.147,6.938,8l.275-.272c1.431-1.408,2.294-2.257-.147-5.294A3.5,3.5,0,0,0,4.74.863Z" transform="translate(0 0)"/></g></svg>