<svg xmlns="http://www.w3.org/2000/svg" width="37.5" height="37.5" viewBox="0 0 37.5 37.5"><defs><style>.a{fill:none;}.b{fill:#707070;}</style></defs><rect class="a" width="37.5" height="37.5"/><g transform="translate(5.694 5.024)"><path class="b" d="M25.868,9.9a.408.408,0,0,0-.018-.088.432.432,0,0,0-.025-.074.387.387,0,0,0-.043-.066.406.406,0,0,0-.057-.067c-.007-.006-.01-.014-.017-.02L21.561,6.359V3.021a1.294,1.294,0,0,0-1.294-1.294H15.594L13.723.275a1.279,1.279,0,0,0-1.573,0L10.279,1.728H5.606A1.294,1.294,0,0,0,4.312,3.021V6.359L.166,9.58c-.007.006-.01.014-.017.02a.4.4,0,0,0-.057.067.385.385,0,0,0-.043.066.426.426,0,0,0-.025.074.409.409,0,0,0-.018.086C.006,9.9,0,9.911,0,9.92V24.583a1.279,1.279,0,0,0,.253.761s0,.009.006.012l.014.012a1.287,1.287,0,0,0,1.019.508H24.579a1.288,1.288,0,0,0,1.023-.511s.009-.006.012-.01,0-.008.006-.012a1.279,1.279,0,0,0,.253-.761V9.921C25.873,9.912,25.868,9.9,25.868,9.9ZM12.678.955a.413.413,0,0,1,.514,0l.995.772h-2.5ZM1.4,25.014l11.276-8.759a.414.414,0,0,1,.514,0l11.279,8.759Zm23.609-.672L13.723,15.575a1.279,1.279,0,0,0-1.573,0L.862,24.341V10.578l7.066,5.487a.431.431,0,0,0,.529-.682L1.278,9.809,4.312,7.451v3.332a.431.431,0,1,0,.862,0V3.021a.431.431,0,0,1,.431-.431H20.267a.431.431,0,0,1,.431.431v7.762a.431.431,0,1,0,.862,0V7.451l3.034,2.358L17.4,15.393a.431.431,0,1,0,.529.681l7.079-5.5V24.341Z" transform="translate(-0.001 -0.005)"/><path class="b" d="M163.923,75.137V73.412a5.175,5.175,0,1,0-5.175,5.175.431.431,0,1,0,0-.862,4.312,4.312,0,1,1,4.312-4.312v1.725a.862.862,0,1,1-1.725,0V73.412a.431.431,0,1,0-.862,0,1.725,1.725,0,1,1-1.725-1.725.431.431,0,1,0,0-.862,2.587,2.587,0,1,0,1.743,4.494,1.72,1.72,0,0,0,3.431-.182Z" transform="translate(-145.813 -64.789)"/></g></svg>