<svg xmlns="http://www.w3.org/2000/svg" width="27.97" height="27.97" viewBox="0 0 27.97 27.97"><defs><style>.a{fill:#152238;}.b{fill:none;}</style></defs><g transform="translate(5.994 3.996)"><path class="a" d="M55.325,157.661v-3h-2v-1a1.665,1.665,0,0,0-3.33,0v1H48v9.323h4v-.666h-3.33V155.33H50V156h.666v-.666h2V156h.666v-.666H54.66v2.331Zm-2.664-3h-2v-1a1,1,0,1,1,2,0Zm0,0" transform="translate(-46.002 -145.673)"/><path class="a" d="M12.986,19.313H1a.315.315,0,0,1-.333-.333V1A.315.315,0,0,1,1,.667h9.656v2a.981.981,0,0,0,1,1h.666V3h-.666a.315.315,0,0,1-.333-.333V1.2l2,2.231v8.558h.666V3.2L11.122,0H1A.981.981,0,0,0,0,1V18.98a.981.981,0,0,0,1,1H12.986a.981.981,0,0,0,1-1h-.666a.315.315,0,0,1-.333.333Zm0,0" transform="translate(0 -0.001)"/><path class="a" d="M112,40h3.663v.666H112Zm0,0" transform="translate(-107.338 -38.335)"/><path class="a" d="M48,80h6.993v.666H48Zm0,0" transform="translate(-46.002 -76.67)"/><path class="a" d="M48,120h9.989v.666H48Zm0,0" transform="translate(-46.002 -115.005)"/><path class="a" d="M200,160h3.663v.666H200Zm0,0" transform="translate(-191.676 -153.34)"/><path class="a" d="M240,200h2v.666h-2Zm0,0" transform="translate(-230.011 -191.676)"/><path class="a" d="M240,240h2v.666h-2Zm0,0" transform="translate(-230.011 -230.011)"/><path class="a" d="M48,160h1.332v.666H48Zm0,0" transform="translate(-46.002 -153.34)"/><path class="a" d="M192,368h1.665v.666H192Zm0,0" transform="translate(-184.009 -352.683)"/><path class="a" d="M192,392h1v.666h-1Zm0,0" transform="translate(-184.009 -375.684)"/><path class="a" d="M167.658,304H161a.981.981,0,0,0-1,1v3.663a.981.981,0,0,0,1,1h6.66a.981.981,0,0,0,1-1V305A.981.981,0,0,0,167.658,304Zm.333,4.662a.315.315,0,0,1-.333.333H161a.315.315,0,0,1-.333-.333V306h7.325Zm0-3.33h-7.325V305a.315.315,0,0,1,.333-.333h6.66a.315.315,0,0,1,.333.333Zm0,0" transform="translate(-153.34 -291.347)"/></g><rect class="b" width="27.97" height="27.97" transform="translate(0 0)"/></svg>