<svg xmlns="http://www.w3.org/2000/svg" xmlns:xlink="http://www.w3.org/1999/xlink" width="25" height="25" viewBox="0 0 25 25"><defs><style>.a{fill:url(#a);}.b{fill:#fff;}</style><linearGradient id="a" y1="0.5" x2="1" y2="0.5" gradientUnits="objectBoundingBox"><stop offset="0" stop-color="#7bc5f8"/><stop offset="0.036" stop-color="#2e9ae5"/><stop offset="0.843" stop-color="#6fb8e5"/><stop offset="0.99" stop-color="#6ab3dc"/><stop offset="1" stop-color="#a9e0ff"/></linearGradient></defs><circle class="a" cx="12.5" cy="12.5" r="12.5" transform="translate(0 0)"/><g transform="translate(5.067 6.468)"><path class="b" d="M-1782.65-38.69Z" transform="translate(1797.008 38.888)"/><path class="b" d="M-1825.646-37.745a1.988,1.988,0,0,1-.577.075l.01-.061a4.729,4.729,0,0,0,1.158-1.323c.044-.149-.007-.2-.008-.206l-.967.411-.81.366h0a3.229,3.229,0,0,0-2.35-.968,2.875,2.875,0,0,0-3.047,2.663,3.965,3.965,0,0,0,.124,1h0a9.506,9.506,0,0,1-3.709-1.1c-2.44-1.236-2.592-2.092-2.592-2.092a3.327,3.327,0,0,0-.193,2.811,3.506,3.506,0,0,0,1.1,1.283h0a2.594,2.594,0,0,1-.783-.128,1.734,1.734,0,0,1-.552-.27c-.238.58.239,1.617,1.065,2.361a4.369,4.369,0,0,0,1.36.706l-1.374.039c-.077,1.335,2.8,2.128,2.8,2.128h0A4.7,4.7,0,0,1-1837.858-29a5.46,5.46,0,0,1-1.567-.23,7.472,7.472,0,0,0,5.1,1.827c5.135-.27,8.035-4.684,8.172-9.022l.006.009a3.612,3.612,0,0,0,.755-.634,5.327,5.327,0,0,0,.837-1.116S-1825.33-37.834-1825.646-37.745Z" transform="translate(1839.425 39.457)"/><path class="b" d="M-1782.65-38.69Z" transform="translate(1797.008 38.888)"/></g></svg>