<svg xmlns="http://www.w3.org/2000/svg" width="25.999" height="25.999" viewBox="0 0 25.999 25.999"><defs><style>.a{fill:none;}.b{fill:#999b9f;}.c{fill:#b7b9bc;}</style></defs><rect class="a" width="25.999" height="25.999"/><g transform="translate(6.219 4.301)"><path class="b" d="M36.7,9.843l-.043-.019c-.1-.047-.206-.091-.311-.132S36.113,9.6,36,9.564c-.093-.031-.187-.059-.282-.087-.145-.042-.291-.08-.441-.113l-.155-.03-.035-.007c-.089-.017-.178-.033-.268-.046l-.026,0h0l-.026,0c-.075-.011-.149-.022-.227-.031l-.264-.022a7.137,7.137,0,0,0-.98,0l-.094.008-.044,0-.109.01c-.1.011-.2.025-.3.041l-.029,0-.2.036c-.074.013-.148.028-.222.044-.142.032-.283.068-.42.108-.109.031-.216.066-.317.1l-.07.025c-.214.076-.427.163-.634.259l-.055.026h0a7,7,0,0,0-3.967,6.282c0,.061,0,.121.008.182l.018.423H40.732l.019-.419c0-.062.008-.124.008-.187A6.985,6.985,0,0,0,36.7,9.843Z" transform="translate(-26.824 -0.002)"/><circle class="c" cx="4.5" cy="4.5" r="4.5" transform="translate(2.78 -0.252)"/></g></svg>