<svg xmlns="http://www.w3.org/2000/svg" width="25" height="25" viewBox="0 0 25 25"><defs><style>.a,.c,.d{fill:none;}.a,.b,.c{stroke:#152238;}.a{stroke-miterlimit:10;}.b{fill:#040505;}.c{stroke-linecap:round;stroke-linejoin:round;}</style></defs><g transform="translate(2.987 3.348)"><path class="a" d="M-97.216-107.142V-114.6a.98.98,0,0,1,.978-.977h12.6a.98.98,0,0,1,.978.977v3.121" transform="translate(100.368 118.409)"/><path class="a" d="M-82.21-106.369v3.173a.98.98,0,0,1-.978.978h-9.827" transform="translate(99.918 117.423)"/><path class="a" d="M-97.174-114.838a.981.981,0,0,1,.791-1.134l11.011-2.763a.981.981,0,0,1,1.134.791l.361,2.031" transform="translate(100.365 118.75)"/><path class="a" d="M-80.247-106.833h-4.7A2.067,2.067,0,0,1-87-108.893h0a2.067,2.067,0,0,1,2.061-2.061h4.7Z" transform="translate(99.274 117.915)"/><rect class="b" width="1.012" height="0.594" rx="0.297" transform="translate(14.412 8.724)"/><rect class="a" width="6.923" height="6.923" rx="3.462" transform="translate(0 11.38)"/><line class="c" y2="3.746" transform="translate(3.462 12.969)"/><line class="c" x2="3.746" transform="translate(1.589 14.842)"/></g><rect class="d" width="25" height="25" transform="translate(0 0)"/></svg>