<svg xmlns="http://www.w3.org/2000/svg" width="25" height="25" viewBox="0 0 25 25"><defs><style>.a{fill:#c4302b;}.b{fill:#fff;}</style></defs><path class="a" d="M12.5,0A12.5,12.5,0,1,1,0,12.5,12.5,12.5,0,0,1,12.5,0Z"/><path class="b" d="M70.48,60.134a1.472,1.472,0,0,0,.931-.3.891.891,0,0,0,.338-.738V57.2a.832.832,0,0,0-.344-.687,1.409,1.409,0,0,0-.886-.266,1.588,1.588,0,0,0-.944.252.794.794,0,0,0-.352.679v1.9a.908.908,0,0,0,.342.745A1.423,1.423,0,0,0,70.48,60.134Zm-.413-2.868a.2.2,0,0,1,.112-.176.564.564,0,0,1,.291-.066.637.637,0,0,1,.313.066.2.2,0,0,1,.119.176v1.8a.238.238,0,0,1-.117.21.577.577,0,0,1-.315.076.5.5,0,0,1-.3-.075.245.245,0,0,1-.1-.211ZM73.1,60.131a.975.975,0,0,0,.427-.159,1.6,1.6,0,0,0,.426-.355v.421h.738v-3.8h-.738v2.885a1.047,1.047,0,0,1-.227.2.419.419,0,0,1-.206.08.173.173,0,0,1-.15-.061.316.316,0,0,1-.048-.194V56.238h-.737v3.176a.838.838,0,0,0,.13.509A.484.484,0,0,0,73.1,60.131ZM75.243,61.7H66.321a2.519,2.519,0,0,0-2.568,2.467v2.086a2.52,2.52,0,0,0,2.568,2.468h8.922a2.52,2.52,0,0,0,2.568-2.468V64.17A2.52,2.52,0,0,0,75.243,61.7ZM67.648,63.82h-.789v3.267H66.1V63.82h-.789v-.557h2.341S67.648,63.82,67.648,63.82ZM70,67.132H69.18v-.339a1.757,1.757,0,0,1-.476.285,1.248,1.248,0,0,1-.477.1.6.6,0,0,1-.43-.139.547.547,0,0,1-.145-.413v-2.58h.823v2.366a.214.214,0,0,0,.05.158.243.243,0,0,0,.17.048.567.567,0,0,0,.23-.065,1.055,1.055,0,0,0,.255-.166V64.045H70S70,67.132,70,67.132Zm3.114-.588a.577.577,0,0,1-.191.465.826.826,0,0,1-.552.162,1.341,1.341,0,0,1-.426-.062,1.071,1.071,0,0,1-.348-.194v.219H70.78V63.263H71.6V64.51a1.338,1.338,0,0,1,.348-.2,1.069,1.069,0,0,1,.375-.068.854.854,0,0,1,.588.181.679.679,0,0,1,.2.534S73.117,66.545,73.117,66.545Zm3.13-.871H74.731v.558a.506.506,0,0,0,.077.324.344.344,0,0,0,.269.09.394.394,0,0,0,.277-.077.5.5,0,0,0,.08-.338V66.1h.815v.152a.806.806,0,0,1-.3.685,1.444,1.444,0,0,1-.89.23,1.312,1.312,0,0,1-.839-.244.811.811,0,0,1-.306-.67v-1.33a.744.744,0,0,1,.338-.628,1.449,1.449,0,0,1,.867-.241,1.355,1.355,0,0,1,.837.224.764.764,0,0,1,.291.645S76.247,65.673,76.247,65.673Zm-9.041-5.531h.932V57.871l1.085-3.2h-.948L67.7,56.857H67.64l-.6-2.189H66.1l1.111,3.305S67.206,60.142,67.206,60.142ZM71.941,64.7l-.173.028-.168.087v1.78a.715.715,0,0,0,.193.1l.2.03a.325.325,0,0,0,.22-.061.247.247,0,0,0,.07-.2V64.991a.271.271,0,0,0-.085-.22A.385.385,0,0,0,71.941,64.7Z" transform="translate(-58.282 -49.977)"/><path class="b" d="M192.46,170.021a.376.376,0,0,0-.272.081.358.358,0,0,0-.081.266v.3h.7v-.3a.3.3,0,0,0-.348-.347Z" transform="translate(-175.621 -155.43)"/></svg>